<svg id="Capa_1" data-name="Capa 1" xmlns="http://www.w3.org/2000/svg" viewBox="0 0 135 47"><title>ab-logo</title><path id="Combined-Shape" fill="#1a3e39" d="M19.24,29A3.4,3.4,0,0,1,20,31.25,3.49,3.49,0,0,1,18.85,34a5.08,5.08,0,0,1-3.43,1H9.79V21h5.53a5,5,0,0,1,3.26.95,3.21,3.21,0,0,1,1.13,2.6,3.23,3.23,0,0,1-.7,2.16,3.4,3.4,0,0,1-1.84,1.11A3.51,3.51,0,0,1,19.24,29ZM17,32.6a2.26,2.26,0,0,0,0-3.3,3.09,3.09,0,0,0-2-.6H12.07v4.49H15A3.08,3.08,0,0,0,17,32.6ZM12.07,27H14.9a2.69,2.69,0,0,0,1.83-.56,2,2,0,0,0,.63-1.56,1.94,1.94,0,0,0-.63-1.54,2.82,2.82,0,0,0-1.92-.56H12.07V27Zm21.36,5h-6l-1.08,3.05H23.93L29.14,21.2h2.63L37,35.06H34.51Zm-0.64-1.76-2.35-6.58L28.1,30.25h4.69ZM52.72,21V35.06H50.42V28.74H43.76v6.32H41.47V21h2.29v5.9h6.66V21h2.31Zm14,11h-6l-1.08,3.05H57.23L62.45,21.2h2.63l5.19,13.86H67.82ZM66.1,30.25l-2.35-6.58-2.35,6.58H66.1ZM89.46,21.2V35.06H87.15V24.67l-4,10.39h-2L77.07,24.67V35.06H74.78V21.2h2.77l4.61,11.07L86.69,21.2h2.77Zm15.67,0.52a6.57,6.57,0,0,1,2.51,2.56,8,8,0,0,1,0,7.44,6.65,6.65,0,0,1-2.51,2.57,7.33,7.33,0,0,1-7.14,0,6.71,6.71,0,0,1-2.52-2.57,8,8,0,0,1,0-7.44A6.64,6.64,0,0,1,98,21.71,7.4,7.4,0,0,1,105.13,21.71Zm-6,1.82a4.22,4.22,0,0,0-1.65,1.78,6.42,6.42,0,0,0,0,5.39,4.22,4.22,0,0,0,1.65,1.78,4.73,4.73,0,0,0,2.43.62,4.64,4.64,0,0,0,2.4-.62,4.24,4.24,0,0,0,1.64-1.78,6.42,6.42,0,0,0,0-5.39A4.25,4.25,0,0,0,104,23.53a4.65,4.65,0,0,0-2.4-.62A4.74,4.74,0,0,0,99.15,23.53Zm26,11.53h-2.29L116,24.67V35.06h-2.29V21H116l6.88,10.43V21h2.29V35.06ZM108.5,19.4a1.34,1.34,0,1,1-1.34-1.33A1.33,1.33,0,0,1,108.5,19.4Zm-49,25.93A1.34,1.34,0,1,1,58.14,44,1.33,1.33,0,0,1,59.48,45.33Zm9.36,0A1.34,1.34,0,1,1,67.5,44,1.33,1.33,0,0,1,68.84,45.33Zm9.36,0A1.34,1.34,0,1,1,76.86,44,1.33,1.33,0,0,1,78.2,45.33ZM3.41,8.87H8.2L7.94,8.1,5.84,1.63q-0.24.86-2.17,6.48Zm6.44,4.91L8.66,10.25H2.95l-1.2,3.53H0L4.71,0.34H7l4.63,13.45H9.85Zm9.73-1.46h5.76v1.46H17.95V0.34h1.62v12Zm13.68,0h5.92v1.42H31.62V0.34h7.44V1.75H33.25V6.36h5.13V7.78H33.25v4.59Zm11.59,1V11.79a3.05,3.05,0,0,0,1.68.52,1.58,1.58,0,0,0,1.75-1.84V0.34h1.62v10q0,3.45-3.15,3.45A3.84,3.84,0,0,1,44.84,13.34Zm14.8-4.47h4.79L64.17,8.1,62.07,1.63q-0.24.86-2.17,6.48Zm6.44,4.91-1.18-3.53H59.18L58,13.78H56.23L60.94,0.34h2.25l4.63,13.45H66.08Zm8.1,0V0.34h2L79.61,6,83,11.83Q83,9.89,83,6V0.34h1.62V13.78h-2L79.15,8.16q-1-1.7-1.89-3.16T76,2.89L75.7,2.27q0.1,2.08.1,5.84v5.67H74.18Zm19.25-1.42h2.43a4.64,4.64,0,0,0,3.79-1.55A5.84,5.84,0,0,0,100.93,7,5.13,5.13,0,0,0,99.5,3.27a4.92,4.92,0,0,0-3.72-1.5H93.43V12.37Zm-1.64-12h4a6.78,6.78,0,0,1,4.9,1.85A6.34,6.34,0,0,1,102.61,7a7,7,0,0,1-1.77,4.87,6.36,6.36,0,0,1-5,2H91.78V0.34Zm26.35,13.44h-1.95l-3.31-5.31h-2.11v5.31h-1.62V0.34h3.39a5.14,5.14,0,0,1,3.56,1.1,3.88,3.88,0,0,1,1.21,3,4.18,4.18,0,0,1-.74,2.37,3.72,3.72,0,0,1-2,1.38Zm-7.36-12V7.1h2a2.83,2.83,0,0,0,2.12-.75,2.64,2.64,0,0,0,.73-1.92q0-2.69-3-2.69h-1.86Zm16,7.14h4.79l-0.26-.78-2.11-6.46q-0.24.86-2.17,6.48Zm6.44,4.91-1.18-3.53h-5.72l-1.2,3.53h-1.74l4.71-13.45h2.25L135,13.78h-1.74Z"/></svg>
